<?xml version="1.0" encoding="utf-8"?>
<!-- Generator: Adobe Illustrator 17.1.0, SVG Export Plug-In . SVG Version: 6.00 Build 0)  -->
<!DOCTYPE svg PUBLIC "-//W3C//DTD SVG 1.1//EN" "http://www.w3.org/Graphics/SVG/1.1/DTD/svg11.dtd">
<svg version="1.1" id="Layer_1" xmlns="http://www.w3.org/2000/svg" xmlns:xlink="http://www.w3.org/1999/xlink" x="0px" y="0px"
	 viewBox="0 0 190 190" enable-background="new 0 0 190 190" xml:space="preserve">
<g>
	<defs>
		<rect id="SVGID_1_" x="6.463" y="4.7" width="532.67" height="180.866"/>
	</defs>
	<clipPath id="SVGID_2_">
		<use xlink:href="#SVGID_1_"  overflow="visible"/>
	</clipPath>
	<path clip-path="url(#SVGID_2_)" fill="#99989A" d="M185.516,91.451c-0.017-0.546-0.021-1.093-0.05-1.633l-0.132-1.634
		c-0.089-1.086-0.149-2.179-0.276-3.259l-0.417-3.247c-0.673-4.304-1.524-8.593-2.816-12.749c-1.26-4.16-2.741-8.252-4.6-12.16
		c-1.818-3.922-3.879-7.721-6.245-11.304c-9.331-14.449-22.795-25.668-37.554-32.529c-1.863-0.825-3.709-1.669-5.605-2.36
		c-1.868-0.763-3.794-1.358-5.686-1.984c-3.832-1.148-7.68-2.109-11.547-2.694c-1.924-0.356-3.864-0.545-5.781-0.762
		c-0.954-0.132-1.95-0.156-2.915-0.229c-0.968-0.052-1.966-0.137-2.896-0.163c-0.923-0.009-1.839-0.019-2.756-0.03L94.867,4.7
		l-1.489,0.049c-0.941,0.036-1.878,0.072-2.81,0.106c-0.933,0.054-1.857,0.152-2.785,0.226C80.39,5.722,73.29,7.298,66.722,9.602
		c-1.658,0.533-3.245,1.22-4.834,1.84c-1.582,0.653-3.112,1.383-4.634,2.083c-2.993,1.504-5.889,3.059-8.597,4.803
		c-5.43,3.44-10.274,7.283-14.452,11.364c-3.757,3.669-6.98,7.491-9.749,11.315C14.187,54.426,7.639,70.864,6.479,88.826l1.572,0.1
		l1.572,0.099c1.194-18.468,8.29-35.273,19.354-48.647c5.754-6.625,13.096-13.011,22.016-18.194
		c2.625-1.558,5.431-2.926,8.312-4.241c1.461-0.603,2.928-1.24,4.443-1.796c1.522-0.527,3.034-1.119,4.618-1.559
		c0.781-0.237,1.572-0.474,2.361-0.714c0.799-0.202,1.602-0.408,2.406-0.614c1.605-0.449,3.262-0.721,4.913-1.08
		c0.826-0.177,1.666-0.276,2.507-0.418c0.842-0.117,1.678-0.292,2.531-0.363c1.703-0.173,3.411-0.406,5.149-0.473
		c0.866-0.044,1.736-0.112,2.607-0.141c0.876-0.008,1.753-0.019,2.627-0.03l1.248-0.012l1.368,0.054
		c0.917,0.038,1.834,0.076,2.756,0.108c0.901,0.054,1.748,0.155,2.63,0.228c0.876,0.09,1.745,0.127,2.639,0.275
		c1.781,0.259,3.572,0.475,5.347,0.86c3.577,0.641,7.114,1.636,10.638,2.736c1.745,0.616,3.515,1.187,5.227,1.924
		c1.745,0.661,3.43,1.478,5.14,2.263c6.754,3.307,13.207,7.526,18.967,12.682c1.477,1.242,2.821,2.644,4.222,3.984
		c1.317,1.424,2.689,2.808,3.922,4.321c0.927,1.047,1.792,2.147,2.654,3.251h-31.247c0,0-18.813,34.859-82.046,45.853
		c-11.868,1.968-32.98,2.073-38.884,2.062c-1.007-0.002-1.585-0.008-1.585-0.008v1.227h0.121h1.462h37.963h12.073h58.703h10.273
		l35.177-46.439c0.239,0.341,0.48,0.678,0.722,1.018c0.582,0.789,1.112,1.617,1.634,2.451c2.153,3.291,4.022,6.782,5.665,10.381
		c1.682,3.585,3.017,7.335,4.144,11.143c1.168,3.802,1.912,7.729,2.51,11.666l0.365,2.968c0.115,0.99,0.154,1.989,0.24,2.98
		l0.111,1.493c0.02,0.499,0.027,1,0.036,1.497l0.064,2.9c-0.073,2.06-0.041,4.259-0.234,6.132c-0.085,0.979-0.11,1.935-0.242,2.928
		l-0.373,2.964c-0.102,0.992-0.324,1.966-0.484,2.95c-0.171,0.982-0.329,1.964-0.575,2.93l-0.662,2.906l-0.811,2.878
		c-1.148,3.796-2.476,7.554-4.168,11.129c-1.663,3.588-3.522,7.084-5.691,10.371l-0.793,1.241l-0.847,1.203
		c-0.221,0.309-0.436,0.618-0.653,0.927l-35.135-46.381h-10.273H58.082H46.009H8.04H6.584H6.463v1.231c0,0,0.574-0.004,1.575-0.007
		c5.892-0.012,27.031,0.089,38.903,2.058c63.226,10.996,82.037,45.849,82.037,45.849h31.152c-0.87,1.111-1.748,2.218-2.687,3.267
		c-1.232,1.517-2.617,2.89-3.934,4.314c-1.402,1.342-2.754,2.735-4.232,3.977c-1.423,1.307-2.952,2.485-4.445,3.687
		c-0.761,0.584-1.552,1.133-2.32,1.697l-1.163,0.842l-1.202,0.782c-3.15,2.149-6.496,3.958-9.861,5.626
		c-0.853,0.395-1.704,0.787-2.557,1.181c-0.848,0.399-1.726,0.711-2.583,1.072c-1.72,0.743-3.492,1.295-5.23,1.916
		c-0.875,0.29-1.774,0.525-2.65,0.796c-0.883,0.261-1.763,0.526-2.662,0.721c-0.885,0.22-1.772,0.435-2.66,0.657
		c-0.887,0.204-1.788,0.354-2.675,0.531c-1.772,0.388-3.572,0.584-5.349,0.85c-0.888,0.141-1.784,0.176-2.672,0.272
		c-0.892,0.069-1.777,0.189-2.664,0.214c-0.892,0.037-1.779,0.072-2.659,0.106l-1.256,0.045l-1.365-0.015
		c-0.913-0.006-1.819-0.017-2.722-0.024c-0.855-0.051-1.713-0.102-2.563-0.152c-6.878-0.4-13.587-1.773-19.828-3.706
		c-6.273-1.909-12.084-4.561-17.358-7.63c-9.211-5.376-16.744-12.038-22.564-18.914c-10.703-13.283-17.525-29.85-18.66-48.016
		l-1.574,0.099v-0.003v0.003l-1.572,0.099c1.126,18.015,7.662,34.503,17.939,47.959c2.747,3.797,5.93,7.598,9.647,11.245
		c4.174,4.085,9.009,7.939,14.436,11.39c10.82,6.933,24.255,12.023,39.123,13.342c14.694,1.406,30.848-0.851,45.638-7.759
		c14.775-6.831,28.272-18.008,37.625-32.45c2.382-3.571,4.437-7.378,6.273-11.29c1.873-3.903,3.352-7.995,4.63-12.151l0.896-3.135
		l0.752-3.181c0.267-1.059,0.455-2.128,0.646-3.201c0.179-1.077,0.42-2.143,0.55-3.225l0.422-3.246
		c0.145-1.076,0.189-2.21,0.29-3.317l0.131-1.665c0.043-0.566,0.034-1.055,0.06-1.587l0.08-3.136L185.516,91.451z"/>
</g>
</svg>
